<svg width="149" height="49" viewBox="0 0 149 49" fill="none" xmlns="http://www.w3.org/2000/svg">
<path d="M38.1074 12.5315C38.0628 12.0033 37.6179 11.5986 37.0878 11.6038H29.3383V8.6671C29.3383 3.88028 25.4577 0 20.6712 0C15.8844 0 12.0041 3.88028 12.0041 8.6671V11.6038H4.25474C3.72699 11.6058 3.28646 12.0065 3.23508 12.5315L0.563654 43.2439C0.442171 44.6678 0.923323 46.0778 1.8908 47.1306C2.85789 48.1829 4.22208 48.7815 5.65159 48.7803H35.7009C37.1304 48.7815 38.4946 48.1829 39.4616 47.1306C40.4291 46.0778 40.9107 44.6678 40.7892 43.2439L38.1074 12.5315ZM14.0435 8.6671C14.0435 5.00669 17.0108 2.03932 20.6712 2.03932C24.3317 2.03932 27.299 5.00669 27.299 8.6671V11.6038H14.0435V8.6671ZM37.9545 45.752C37.3777 46.3869 36.5584 46.7466 35.7009 46.741H5.64124C4.78369 46.7414 3.96557 46.3817 3.38564 45.75C2.80611 45.1179 2.51813 44.2715 2.59262 43.4172L5.18239 13.6431H12.0041V20.0056C10.3643 20.5103 9.34029 22.1382 9.5956 23.8349C9.85052 25.5313 11.3083 26.786 13.0238 26.786C14.7393 26.786 16.1967 25.5313 16.452 23.8349C16.7069 22.1382 15.6829 20.5103 14.0435 20.0056V13.6328H27.299V20.0056C25.6592 20.5103 24.6352 22.1382 24.8905 23.8349C25.1454 25.5313 26.6032 26.786 28.3187 26.786C30.0342 26.786 31.4916 25.5313 31.7469 23.8349C32.0018 22.1382 30.9778 20.5103 29.3383 20.0056V13.6328H36.1497L38.7395 43.4068C38.8232 44.2648 38.5376 45.1175 37.9545 45.752V45.752ZM12.8709 21.9024C12.9724 21.9159 13.0752 21.9159 13.1768 21.9024C13.9307 21.9836 14.49 22.6408 14.4493 23.398C14.4083 24.1556 13.7822 24.749 13.0238 24.749C12.265 24.749 11.6389 24.1556 11.5983 23.398C11.5576 22.6408 12.1165 21.9836 12.8709 21.9024ZM28.1657 21.9024C28.2673 21.9159 28.3701 21.9159 28.4716 21.9024C29.2256 21.9836 29.7848 22.6408 29.7442 23.398C29.7032 24.1556 29.0771 24.749 28.3187 24.749C27.5599 24.749 26.9338 24.1556 26.8932 23.398C26.8525 22.6408 27.4113 21.9836 28.1657 21.9024V21.9024Z" fill="black"/>
<path d="M58.432 21.49V23.164H55.102V34H53.05V23.164H49.702V21.49H58.432ZM64.8122 34.162C63.8762 34.162 63.0302 33.952 62.2742 33.532C61.5182 33.1 60.9242 32.5 60.4922 31.732C60.0602 30.952 59.8442 30.052 59.8442 29.032C59.8442 28.024 60.0662 27.13 60.5102 26.35C60.9542 25.57 61.5602 24.97 62.3282 24.55C63.0962 24.13 63.9542 23.92 64.9022 23.92C65.8502 23.92 66.7082 24.13 67.4762 24.55C68.2442 24.97 68.8502 25.57 69.2942 26.35C69.7382 27.13 69.9602 28.024 69.9602 29.032C69.9602 30.04 69.7322 30.934 69.2762 31.714C68.8202 32.494 68.1962 33.1 67.4042 33.532C66.6242 33.952 65.7602 34.162 64.8122 34.162ZM64.8122 32.38C65.3402 32.38 65.8322 32.254 66.2882 32.002C66.7562 31.75 67.1342 31.372 67.4222 30.868C67.7102 30.364 67.8542 29.752 67.8542 29.032C67.8542 28.312 67.7162 27.706 67.4402 27.214C67.1642 26.71 66.7982 26.332 66.3422 26.08C65.8862 25.828 65.3942 25.702 64.8662 25.702C64.3382 25.702 63.8462 25.828 63.3902 26.08C62.9462 26.332 62.5922 26.71 62.3282 27.214C62.0642 27.706 61.9322 28.312 61.9322 29.032C61.9322 30.1 62.2022 30.928 62.7422 31.516C63.2942 32.092 63.9842 32.38 64.8122 32.38ZM75.9127 29.05L80.4847 34H77.7127L74.0407 29.734V34H71.9887V20.68H74.0407V28.42L77.6407 24.082H80.4847L75.9127 29.05ZM86.2575 34.162C85.3215 34.162 84.4755 33.952 83.7195 33.532C82.9635 33.1 82.3695 32.5 81.9375 31.732C81.5055 30.952 81.2895 30.052 81.2895 29.032C81.2895 28.024 81.5115 27.13 81.9555 26.35C82.3995 25.57 83.0055 24.97 83.7735 24.55C84.5415 24.13 85.3995 23.92 86.3475 23.92C87.2955 23.92 88.1535 24.13 88.9215 24.55C89.6895 24.97 90.2955 25.57 90.7395 26.35C91.1835 27.13 91.4055 28.024 91.4055 29.032C91.4055 30.04 91.1775 30.934 90.7215 31.714C90.2655 32.494 89.6415 33.1 88.8495 33.532C88.0695 33.952 87.2055 34.162 86.2575 34.162ZM86.2575 32.38C86.7855 32.38 87.2775 32.254 87.7335 32.002C88.2015 31.75 88.5795 31.372 88.8675 30.868C89.1555 30.364 89.2995 29.752 89.2995 29.032C89.2995 28.312 89.1615 27.706 88.8855 27.214C88.6095 26.71 88.2435 26.332 87.7875 26.08C87.3315 25.828 86.8395 25.702 86.3115 25.702C85.7835 25.702 85.2915 25.828 84.8355 26.08C84.3915 26.332 84.0375 26.71 83.7735 27.214C83.5095 27.706 83.3775 28.312 83.3775 29.032C83.3775 30.1 83.6475 30.928 84.1875 31.516C84.7395 32.092 85.4295 32.38 86.2575 32.38Z" fill="#9D102A"/>
<path d="M106.356 23.92C107.136 23.92 107.832 24.082 108.444 24.406C109.068 24.73 109.554 25.21 109.902 25.846C110.262 26.482 110.442 27.25 110.442 28.15V34H108.408V28.456C108.408 27.568 108.186 26.89 107.742 26.422C107.298 25.942 106.692 25.702 105.924 25.702C105.156 25.702 104.544 25.942 104.088 26.422C103.644 26.89 103.422 27.568 103.422 28.456V34H101.388V28.456C101.388 27.568 101.166 26.89 100.722 26.422C100.278 25.942 99.672 25.702 98.904 25.702C98.136 25.702 97.524 25.942 97.068 26.422C96.624 26.89 96.402 27.568 96.402 28.456V34H94.35V24.082H96.402V25.216C96.738 24.808 97.164 24.49 97.68 24.262C98.196 24.034 98.748 23.92 99.336 23.92C100.128 23.92 100.836 24.088 101.46 24.424C102.084 24.76 102.564 25.246 102.9 25.882C103.2 25.282 103.668 24.808 104.304 24.46C104.94 24.1 105.624 23.92 106.356 23.92ZM117.355 34.162C116.419 34.162 115.573 33.952 114.817 33.532C114.061 33.1 113.467 32.5 113.035 31.732C112.603 30.952 112.387 30.052 112.387 29.032C112.387 28.024 112.609 27.13 113.053 26.35C113.497 25.57 114.103 24.97 114.871 24.55C115.639 24.13 116.497 23.92 117.445 23.92C118.393 23.92 119.251 24.13 120.019 24.55C120.787 24.97 121.393 25.57 121.837 26.35C122.281 27.13 122.503 28.024 122.503 29.032C122.503 30.04 122.275 30.934 121.819 31.714C121.363 32.494 120.739 33.1 119.947 33.532C119.167 33.952 118.303 34.162 117.355 34.162ZM117.355 32.38C117.883 32.38 118.375 32.254 118.831 32.002C119.299 31.75 119.677 31.372 119.965 30.868C120.253 30.364 120.397 29.752 120.397 29.032C120.397 28.312 120.259 27.706 119.983 27.214C119.707 26.71 119.341 26.332 118.885 26.08C118.429 25.828 117.937 25.702 117.409 25.702C116.881 25.702 116.389 25.828 115.933 26.08C115.489 26.332 115.135 26.71 114.871 27.214C114.607 27.706 114.475 28.312 114.475 29.032C114.475 30.1 114.745 30.928 115.285 31.516C115.837 32.092 116.527 32.38 117.355 32.38ZM126.584 25.558C126.932 25.078 127.406 24.688 128.006 24.388C128.618 24.076 129.296 23.92 130.04 23.92C130.916 23.92 131.708 24.13 132.416 24.55C133.124 24.97 133.682 25.57 134.09 26.35C134.498 27.118 134.702 28 134.702 28.996C134.702 29.992 134.498 30.886 134.09 31.678C133.682 32.458 133.118 33.07 132.398 33.514C131.69 33.946 130.904 34.162 130.04 34.162C129.272 34.162 128.588 34.012 127.988 33.712C127.4 33.412 126.932 33.028 126.584 32.56V34H124.532V20.68H126.584V25.558ZM132.614 28.996C132.614 28.312 132.47 27.724 132.182 27.232C131.906 26.728 131.534 26.35 131.066 26.098C130.61 25.834 130.118 25.702 129.59 25.702C129.074 25.702 128.582 25.834 128.114 26.098C127.658 26.362 127.286 26.746 126.998 27.25C126.722 27.754 126.584 28.348 126.584 29.032C126.584 29.716 126.722 30.316 126.998 30.832C127.286 31.336 127.658 31.72 128.114 31.984C128.582 32.248 129.074 32.38 129.59 32.38C130.118 32.38 130.61 32.248 131.066 31.984C131.534 31.708 131.906 31.312 132.182 30.796C132.47 30.28 132.614 29.68 132.614 28.996ZM136.047 28.996C136.047 28 136.251 27.118 136.659 26.35C137.079 25.582 137.643 24.988 138.351 24.568C139.071 24.136 139.863 23.92 140.727 23.92C141.507 23.92 142.185 24.076 142.761 24.388C143.349 24.688 143.817 25.066 144.165 25.522V24.082H146.235V34H144.165V32.524C143.817 32.992 143.343 33.382 142.743 33.694C142.143 34.006 141.459 34.162 140.691 34.162C139.839 34.162 139.059 33.946 138.351 33.514C137.643 33.07 137.079 32.458 136.659 31.678C136.251 30.886 136.047 29.992 136.047 28.996ZM144.165 29.032C144.165 28.348 144.021 27.754 143.733 27.25C143.457 26.746 143.091 26.362 142.635 26.098C142.179 25.834 141.687 25.702 141.159 25.702C140.631 25.702 140.139 25.834 139.683 26.098C139.227 26.35 138.855 26.728 138.567 27.232C138.291 27.724 138.153 28.312 138.153 28.996C138.153 29.68 138.291 30.28 138.567 30.796C138.855 31.312 139.227 31.708 139.683 31.984C140.151 32.248 140.643 32.38 141.159 32.38C141.687 32.38 142.179 32.248 142.635 31.984C143.091 31.72 143.457 31.336 143.733 30.832C144.021 30.316 144.165 29.716 144.165 29.032Z" fill="#90996C"/>
</svg>
